<?xml version="1.0" encoding="utf-8"?>
<!-- Generator: Adobe Illustrator 21.0.0, SVG Export Plug-In . SVG Version: 6.00 Build 0)  -->
<svg version="1.1"
	 id="svg2" inkscape:export-filename="/home/byron/art/cards/final/PNGs/black_joker.png" inkscape:export-xdpi="215.44792" inkscape:export-ydpi="215.44792" inkscape:version="0.48.0 r9654" sodipodi:docname="black_joker.svg" xmlns:cc="http://creativecommons.org/ns#" xmlns:dc="http://purl.org/dc/elements/1.1/" xmlns:inkscape="http://www.inkscape.org/namespaces/inkscape" xmlns:rdf="http://www.w3.org/1999/02/22-rdf-syntax-ns#" xmlns:sodipodi="http://sodipodi.sourceforge.net/DTD/sodipodi-0.dtd" xmlns:svg="http://www.w3.org/2000/svg"
	 xmlns="http://www.w3.org/2000/svg" xmlns:xlink="http://www.w3.org/1999/xlink" x="0px" y="0px" viewBox="0 0 167.1 242.7"
	 style="enable-background:new 0 0 167.1 242.7;" xml:space="preserve">
<style type="text/css">
	.st0{stroke:#000000;stroke-width:0.5;}
	.st1{fill:#FFFFFF;}
</style>
<sodipodi:namedview  bordercolor="#666666" borderopacity="1" gridtolerance="10" guidetolerance="10" id="namedview39" inkscape:current-layer="svg2" inkscape:cx="117.85966" inkscape:cy="152.384" inkscape:pageopacity="0" inkscape:pageshadow="2" inkscape:window-height="977" inkscape:window-maximized="1" inkscape:window-width="1680" inkscape:window-x="0" inkscape:window-y="25" inkscape:zoom="2.4336873" objecttolerance="10" pagecolor="#ffffff" showgrid="false">
	</sodipodi:namedview>
<g id="Layer_x0020_1">
	<path id="path5" class="st0" d="M166.8,235.5c0,3.8-3.1,6.9-6.9,6.9H7.1c-3.8,0-6.9-3.1-6.9-6.9V7.1c0-3.8,3.1-6.9,6.9-6.9H160
		c3.8,0,6.9,3.1,6.9,6.9L166.8,235.5L166.8,235.5z"/>
	<g id="g7">
		<g id="g9">
		</g>
	</g>
	<g id="g15">
	</g>
	<g id="g19">
	</g>
	<g id="g23">
		<g id="g25">
		</g>
	</g>
	<g id="g31">
		<g id="g33">
		</g>
	</g>
</g>
<g>
	<title>mark</title>
	<desc>Created with Sketch.</desc>
	<g id="Main">
		<path id="mark" class="st1" d="M57.1,149.8c4.3,4.3,4.3,11.4,0.2,15.5c-4.1,4.1-11.1,4.1-15.5-0.2l-6.6-6.6
			c-0.4-0.4-0.4-1.1,0-1.6l0,0c0.4-0.4,1.1-0.4,1.6,0l6.6,6.6c3.5,3.5,9.3,3.6,12.5,0.4c3.2-3.2,3.2-9-0.4-12.5l-6.6-6.6
			c-0.4-0.4-0.4-1.1,0-1.6c0.4-0.4,1.1-0.4,1.6,0L57.1,149.8z M80.9,140.9c-0.2,0.2-0.5,0.3-0.7,0.3l-12-0.1l0.1,12
			c0,0.3-0.1,0.5-0.3,0.7l0,0c-0.6,0.6-1.7,0.2-1.7-0.7L66,140.9l-12.2-0.2c-0.9,0-1.3-1.1-0.7-1.7l0,0c0.2-0.2,0.5-0.3,0.7-0.3
			l12,0.1l-0.1-12c0-0.3,0.1-0.5,0.3-0.7c0.6-0.6,1.7-0.2,1.7,0.7l0.2,12.2l12.2,0.2C81.1,139.2,81.5,140.2,80.9,140.9z M98.2,123.6
			c-0.4,0.4-1.1,0.4-1.6,0l-2.4-2.4c0.9,3.3,0.2,6.9-2.4,9.6c-3.8,4-10,4.6-14.5,1.4c-5.7-4.1-6.1-12.1-1.4-16.8
			c4.9-4.9,11.3-4.3,16,0.4l6.2,6.2C98.6,122.4,98.6,123.1,98.2,123.6z M85.5,101.7c0.4-0.4,1.1-0.4,1.6,0l4.9,4.9
			c-0.9-3.3-0.2-6.9,2.4-9.6c3.8-4,10-4.6,14.5-1.4c5.7,4.1,6.1,12.1,1.4,16.8c-4.9,4.9-11.3,4.3-16-0.4l-8.7-8.7
			C85.1,102.8,85.1,102.1,85.5,101.7z M131,83.4c1.3,4.3-0.2,9.3-4.3,12.2c-3.8,2.7-9,2.7-12.8-0.1c-5.7-4.1-6.1-12.1-1.4-16.8
			c2.9-2.9,7.2-3.9,10.9-2.8c0.6,0.2,0.9,0.9,0.7,1.5c-0.2,0.5-0.8,0.8-1.3,0.6c-3-1-6.5-0.3-8.9,2.1c-3.4,3.4-3.3,9.1,0.2,12.7
			c3.5,3.5,9.2,3.6,12.7,0.2c2.4-2.4,3.1-5.8,2.1-8.9c-0.2-0.5,0.1-1.1,0.6-1.3l0,0C130.1,82.5,130.8,82.8,131,83.4z M77.3,116.8
			c-3.4,3.4-3.3,9.1,0.2,12.7c3.5,3.5,9.2,3.6,12.7,0.2c3.4-3.4,3.3-9.1-0.2-12.7C86.4,113.4,80.7,113.3,77.3,116.8z M108.8,110.9
			c3.4-3.4,3.3-9.1-0.2-12.7c-3.5-3.5-9.2-3.6-12.7-0.2s-3.3,9.1,0.2,12.7C99.7,114.3,105.4,114.4,108.8,110.9z"/>
	</g>
</g>
</svg>
